<?xml version="1.0" encoding="UTF-8" standalone="no"?>
<!-- Created with Inkscape (http://www.inkscape.org/) -->

<svg
   width="85.980339mm"
   height="99.879616mm"
   viewBox="0 0 85.980339 99.879616"
   version="1.1"
   id="svg1313"
   inkscape:version="1.1.2 (b8e25be833, 2022-02-05)"
   sodipodi:docname="BCDC-part1a.svg"
   xmlns:inkscape="http://www.inkscape.org/namespaces/inkscape"
   xmlns:sodipodi="http://sodipodi.sourceforge.net/DTD/sodipodi-0.dtd"
   xmlns="http://www.w3.org/2000/svg"
   xmlns:svg="http://www.w3.org/2000/svg">
  <sodipodi:namedview
     id="namedview1315"
     pagecolor="#ffffff"
     bordercolor="#666666"
     borderopacity="1.0"
     inkscape:pageshadow="2"
     inkscape:pageopacity="0.0"
     inkscape:pagecheckerboard="0"
     inkscape:document-units="mm"
     showgrid="false"
     fit-margin-top="0"
     fit-margin-left="0"
     fit-margin-right="0"
     fit-margin-bottom="0"
     inkscape:zoom="0.64052329"
     inkscape:cx="-671.3261"
     inkscape:cy="-371.57119"
     inkscape:window-width="3840"
     inkscape:window-height="2066"
     inkscape:window-x="-11"
     inkscape:window-y="-11"
     inkscape:window-maximized="1"
     inkscape:current-layer="layer1" />
  <defs
     id="defs1310" />
  <g
     inkscape:label="Ebene 1"
     inkscape:groupmode="layer"
     id="layer1"
     transform="translate(-282.51192,-246.64712)">
    <path
       style="fill:#000000;stroke-width:1"
       d="m 316.45108,346.32928 c -7.22817,-0.4323 -13.59364,-1.33461 -18.4717,-2.61835 -6.19623,-1.63067 -7.45916,-5.03831 -5.7194,-15.43218 2.23212,-13.33542 4.93605,-35.19425 4.70016,-37.99651 -0.21929,-2.60503 -1.06177,-4.61098 -2.80977,-6.69002 -4.70986,-5.60185 -7.86154,-10.5213 -9.23674,-14.41762 -1.36816,-3.87637 -2.70004,-13.24371 -2.34297,-16.47849 0.11682,-1.05834 0.11682,-1.05834 0.7031,0.17639 0.32246,0.67909 1.40716,3.36337 2.41044,5.96506 3.10033,8.03966 4.6198,11.1709 6.40299,13.19493 0.99598,1.1305 1.76242,1.47948 2.52914,1.15159 1.33428,-0.57062 2.15596,-2.07142 2.85995,-5.22376 0.52364,-2.34474 1.68851,-4.88834 3.07262,-6.70935 1.28731,-1.69365 6.21546,-6.6323 8.14107,-8.15841 4.75237,-3.76642 8.45298,-5.55511 12.90144,-6.23591 2.25477,-0.34507 6.97375,-0.24965 8.97078,0.1814 5.45661,1.17778 10.42593,4.33017 16.32388,10.35539 4.1494,4.23895 5.68295,6.60271 6.45072,9.94295 0.85263,3.70945 1.58364,5.18911 2.86373,5.79655 0.55468,0.26321 0.7,0.26971 1.21026,0.0541 2.25096,-0.95112 5.22548,-6.54703 8.7824,-16.52219 0.60537,-1.69775 1.32171,-3.52337 1.59187,-4.05695 0.48912,-0.96605 0.49173,-0.96799 0.62134,-0.46015 0.33847,1.3262 -0.37409,8.69885 -1.25486,12.98377 -1.1383,5.53774 -3.13333,9.37082 -8.20047,15.75567 -4.25653,5.36343 -4.74201,6.33155 -4.88057,9.73252 -0.14589,3.5805 2.2515,23.08586 4.56359,37.12986 1.278,7.76279 1.08896,10.79916 -0.82886,13.31355 -0.67191,0.88092 -2.37923,1.96411 -3.75305,2.3811 -2.72408,0.8268 -9.61038,2.04159 -13.96498,2.46348 -6.30499,0.61087 -17.21691,0.8055 -23.63611,0.42157 z"
       id="path1394" />
  </g>
</svg>
