<?xml version="1.0" encoding="UTF-8" standalone="no"?>
<!-- Created with Inkscape (http://www.inkscape.org/) -->

<svg
   width="88.900002mm"
   height="18.46233mm"
   viewBox="0 0 88.900002 18.46233"
   version="1.1"
   id="svg1816"
   inkscape:version="1.1.2 (b8e25be833, 2022-02-05)"
   sodipodi:docname="BCDC-part2.svg"
   xmlns:inkscape="http://www.inkscape.org/namespaces/inkscape"
   xmlns:sodipodi="http://sodipodi.sourceforge.net/DTD/sodipodi-0.dtd"
   xmlns="http://www.w3.org/2000/svg"
   xmlns:svg="http://www.w3.org/2000/svg">
  <sodipodi:namedview
     id="namedview1818"
     pagecolor="#ffffff"
     bordercolor="#666666"
     borderopacity="1.0"
     inkscape:pageshadow="2"
     inkscape:pageopacity="0.0"
     inkscape:pagecheckerboard="0"
     inkscape:document-units="mm"
     showgrid="false"
     fit-margin-top="0"
     fit-margin-left="0"
     fit-margin-right="0"
     fit-margin-bottom="0"
     inkscape:zoom="7.2466938"
     inkscape:cx="243.00737"
     inkscape:cy="32.290588"
     inkscape:window-width="3840"
     inkscape:window-height="2066"
     inkscape:window-x="-11"
     inkscape:window-y="-11"
     inkscape:window-maximized="1"
     inkscape:current-layer="layer1" />
  <defs
     id="defs1813" />
  <g
     inkscape:label="Ebene 1"
     inkscape:groupmode="layer"
     id="layer1"
     transform="translate(61.7991,-14.314037)">
    <path
       style="fill:#000000;stroke-width:1"
       d="m -54.36488,32.647762 c -1.00332,-0.200552 -2.1957,-0.909563 -2.74848,-1.634301 -0.9138,-1.198058 -0.98157,-1.589494 -0.98157,-5.66945 0,-3.798027 0,-3.798027 -1.85209,-3.798027 -1.85208,0 -1.85208,0 -1.85208,-1.499305 0,-1.499306 0,-1.499306 1.82954,-1.499306 1.82954,0 1.82954,0 1.93883,-0.683449 0.15776,-0.986564 1.11558,-2.304972 2.12674,-2.927383 0.86803,-0.534307 0.86803,-0.534307 15.83551,-0.581329 14.94574,-0.04695 9.677073,-0.04647 10.551673,0.329768 1.30972,0.563427 2.64271,2.239397 2.64271,3.322687 0,0.280157 0.0756,0.279436 1.19062,-0.01138 1.80979,-0.472013 15.397304,-0.427041 17.3558437,0.101385 0.42417,0.114441 0.48684,0.06441 0.68902,-0.550053 0.46263,-1.40604 1.53777,-2.548131 2.86871,-3.047338 0.3341,-0.125311 0.049203,-0.186244 10.0119833,-0.186244 14.64892,0 14.81548,0.0039 15.59089,0.368422 1.1109,0.522185 2.11637,1.681654 2.4922,2.873923 0.31238,0.990988 0.31238,0.990988 2.04405,0.990988 1.73168,0 1.73168,0 1.73168,1.499306 0,1.499305 0,1.499305 -1.75176,1.499305 -1.75177,0 -1.75177,0 -1.80799,3.924653 -0.0636,4.440007 -0.14112,4.742501 -1.53882,6.005247 -1.50758,1.362001 -0.30372,1.270795 -16.77365,1.270795 -14.64048,0 -9.4416433,-0.0022 -10.2463233,-0.374424 -0.97558,-0.451235 -1.91288,-1.353748 -2.37664,-2.288448 -0.29764,-0.599881 -0.35298,-1.198761 -0.42982,-4.652055 -0.0882,-3.963539 -0.0882,-3.963539 -0.97013,-4.312983 -1.2956697,-0.513368 -15.4705037,-0.513706 -16.8451437,-5.29e-4 -0.97014,0.362126 -0.97014,0.362126 -1.06427,4.231424 -0.1043,4.286699 -0.17664,4.612323 -1.30132,5.857202 -0.34978,0.387172 -1.05202,0.892032 -1.56054,1.121911 -0.92456,0.417902 4.367107,0.417902 -9.832203,0.445186 -7.80962,0.01501 -14.54484,-0.04178 -14.96717,-0.126201 z"
       id="path961"
       sodipodi:nodetypes="ssssssscssscsssscssssssscsscccscsss" />
  </g>
</svg>
