<?xml version="1.0" encoding="UTF-8" standalone="no"?>
<!-- Created with Inkscape (http://www.inkscape.org/) -->

<svg
   width="6.3530812mm"
   height="13.649794mm"
   viewBox="0 0 6.3530812 13.649794"
   version="1.1"
   id="svg2032"
   inkscape:version="1.1.2 (b8e25be833, 2022-02-05)"
   sodipodi:docname="BCDC-part5.svg"
   xmlns:inkscape="http://www.inkscape.org/namespaces/inkscape"
   xmlns:sodipodi="http://sodipodi.sourceforge.net/DTD/sodipodi-0.dtd"
   xmlns="http://www.w3.org/2000/svg"
   xmlns:svg="http://www.w3.org/2000/svg">
  <sodipodi:namedview
     id="namedview2034"
     pagecolor="#ffffff"
     bordercolor="#666666"
     borderopacity="1.0"
     inkscape:pageshadow="2"
     inkscape:pageopacity="0.0"
     inkscape:pagecheckerboard="0"
     inkscape:document-units="mm"
     showgrid="false"
     fit-margin-top="0"
     fit-margin-left="0"
     fit-margin-right="0"
     fit-margin-bottom="0"
     inkscape:zoom="0.64052329"
     inkscape:cx="1759.4989"
     inkscape:cy="1024.1626"
     inkscape:window-width="3840"
     inkscape:window-height="2066"
     inkscape:window-x="-11"
     inkscape:window-y="-11"
     inkscape:window-maximized="1"
     inkscape:current-layer="layer1" />
  <defs
     id="defs2029" />
  <g
     inkscape:label="Ebene 1"
     inkscape:groupmode="layer"
     id="layer1"
     transform="translate(360.4853,122.48554)">
    <path
       style="fill:#000000;stroke-width:1"
       d="m -357.32903,-109.2094 c -1.6488,-1.10806 -3.15421,-5.72825 -3.15627,-9.68679 -0.001,-2.60038 0.53006,-3.81981 1.54857,-3.55346 0.52944,0.13845 0.64173,0.70558 0.38467,1.94285 -0.42906,2.06521 0.25495,6.22232 1.39563,8.482 0.68503,1.35703 0.84019,1.44711 1.06962,0.62097 0.4422,-1.59237 -0.009,-5.62151 -0.87559,-7.82028 -0.61411,-1.55803 -0.29372,-2.51278 0.73379,-2.18666 1.35141,0.42891 2.6516,7.94516 1.85086,10.6996 -0.50373,1.73277 -1.701,2.34201 -2.95128,1.50177 z"
       id="path959" />
  </g>
</svg>
