999
"DXF R12 Output" (www.mydxf.blogspot.com)
 0 
SECTION
 2 
HEADER
 9 
$ACADVER
 1 
AC1009
 9 
$EXTMIN
 10 
 0 
 20 
 0 
 9 
$EXTMAX
 10 
 8.5 
 20 
 11 
 0 
ENDSEC
 0 
SECTION
 2 
ENTITIES
0
LINE
8
Ebene 1
10
33.658100
20
-5.921100
11
31.841100
21
-5.929821
0
LINE
8
Ebene 1
10
31.841100
20
-5.929821
11
30.870375
21
-5.871762
0
LINE
8
Ebene 1
10
30.870375
20
-5.871762
11
29.899650
21
-5.813706
0
LINE
8
Ebene 1
10
29.899650
20
-5.813706
11
29.327171
21
-5.756209
0
LINE
8
Ebene 1
10
29.327171
20
-5.756209
11
28.754689
21
-5.698712
0
LINE
8
Ebene 1
10
28.754689
20
-5.698712
11
28.082648
21
-5.602152
0
LINE
8
Ebene 1
10
28.082648
20
-5.602152
11
27.410607
21
-5.505587
0
LINE
8
Ebene 1
10
27.410607
20
-5.505587
11
26.763458
21
-5.379597
0
LINE
8
Ebene 1
10
26.763458
20
-5.379597
11
26.116306
21
-5.253610
0
LINE
8
Ebene 1
10
26.116306
20
-5.253610
11
25.657258
21
-5.132802
0
LINE
8
Ebene 1
10
25.657258
20
-5.132802
11
25.198207
21
-5.011994
0
LINE
8
Ebene 1
10
25.198207
20
-5.011994
11
24.943389
21
-4.882869
0
LINE
8
Ebene 1
10
24.943389
20
-4.882869
11
24.688571
21
-4.753741
0
LINE
8
Ebene 1
10
24.688571
20
-4.753741
11
24.478002
21
-4.559643
0
LINE
8
Ebene 1
10
24.478002
20
-4.559643
11
24.267431
21
-4.365545
0
LINE
8
Ebene 1
10
24.267431
20
-4.365545
11
24.134843
21
-4.121939
0
LINE
8
Ebene 1
10
24.134843
20
-4.121939
11
24.002255
21
-3.878333
0
LINE
8
Ebene 1
10
24.002255
20
-3.878333
11
23.917024
21
-3.559992
0
LINE
8
Ebene 1
10
23.917024
20
-3.559992
11
23.831793
21
-3.241654
0
LINE
8
Ebene 1
10
23.831793
20
-3.241654
11
23.835377
21
-2.619394
0
LINE
8
Ebene 1
10
23.835377
20
-2.619394
11
23.838961
21
-1.997134
0
LINE
8
Ebene 1
10
23.838961
20
-1.997134
11
24.043106
21
-0.777504
0
LINE
8
Ebene 1
10
24.043106
20
-0.777504
11
24.247251
21
0.442126
0
LINE
8
Ebene 1
10
24.247251
20
0.442126
11
24.520027
21
2.358686
0
LINE
8
Ebene 1
10
24.520027
20
2.358686
11
24.792803
21
4.275246
0
LINE
8
Ebene 1
10
24.792803
20
4.275246
11
24.917847
21
5.270863
0
LINE
8
Ebene 1
10
24.917847
20
5.270863
11
25.042888
21
6.266480
0
LINE
8
Ebene 1
10
25.042888
20
6.266480
11
25.222821
21
7.909250
0
LINE
8
Ebene 1
10
25.222821
20
7.909250
11
25.402754
21
9.552020
0
LINE
8
Ebene 1
10
25.402754
20
9.552020
11
25.369593
21
9.945948
0
LINE
8
Ebene 1
10
25.369593
20
9.945948
11
25.336432
21
10.339879
0
LINE
8
Ebene 1
10
25.336432
20
10.339879
11
25.236232
21
10.667770
0
LINE
8
Ebene 1
10
25.236232
20
10.667770
11
25.136032
21
10.995664
0
LINE
8
Ebene 1
10
25.136032
20
10.995664
11
24.985215
21
11.261537
0
LINE
8
Ebene 1
10
24.985215
20
11.261537
11
24.834398
21
11.527413
0
LINE
8
Ebene 1
10
24.834398
20
11.527413
11
24.576614
21
11.834019
0
LINE
8
Ebene 1
10
24.576614
20
11.834019
11
24.318832
21
12.140622
0
LINE
8
Ebene 1
10
24.318832
20
12.140622
11
23.817769
21
12.787774
0
LINE
8
Ebene 1
10
23.817769
20
12.787774
11
23.316709
21
13.434923
0
LINE
8
Ebene 1
10
23.316709
20
13.434923
11
22.956272
21
13.982513
0
LINE
8
Ebene 1
10
22.956272
20
13.982513
11
22.595832
21
14.530103
0
LINE
8
Ebene 1
10
22.595832
20
14.530103
11
22.358181
21
15.003020
0
LINE
8
Ebene 1
10
22.358181
20
15.003020
11
22.120527
21
15.475939
0
LINE
8
Ebene 1
10
22.120527
20
15.475939
11
21.969801
21
15.902989
0
LINE
8
Ebene 1
10
21.969801
20
15.902989
11
21.819075
21
16.330042
0
LINE
8
Ebene 1
10
21.819075
20
16.330042
11
21.691559
21
16.898606
0
LINE
8
Ebene 1
10
21.691559
20
16.898606
11
21.564045
21
17.467170
0
LINE
8
Ebene 1
10
21.564045
20
17.467170
11
21.461409
21
18.263663
0
LINE
8
Ebene 1
10
21.461409
20
18.263663
11
21.358773
21
19.060158
0
LINE
8
Ebene 1
10
21.358773
20
19.060158
11
21.317182
21
19.657526
0
LINE
8
Ebene 1
10
21.317182
20
19.657526
11
21.275594
21
20.254897
0
LINE
8
Ebene 1
10
21.275594
20
20.254897
11
21.308563
21
20.553581
0
LINE
8
Ebene 1
10
21.308563
20
20.553581
11
21.341532
21
20.852268
0
LINE
8
Ebene 1
10
21.341532
20
20.852268
11
21.506993
21
20.503800
0
LINE
8
Ebene 1
10
21.506993
20
20.503800
11
21.672454
21
20.155335
0
LINE
8
Ebene 1
10
21.672454
20
20.155335
11
22.187272
21
18.820325
0
LINE
8
Ebene 1
10
22.187272
20
18.820325
11
22.702090
21
17.485325
0
LINE
8
Ebene 1
10
22.702090
20
17.485325
11
23.005608
21
16.797697
0
LINE
8
Ebene 1
10
23.005608
20
16.797697
11
23.309126
21
16.110069
0
LINE
8
Ebene 1
10
23.309126
20
16.110069
11
23.550341
21
15.718334
0
LINE
8
Ebene 1
10
23.550341
20
15.718334
11
23.791556
21
15.326596
0
LINE
8
Ebene 1
10
23.791556
20
15.326596
11
23.994333
21
15.096430
0
LINE
8
Ebene 1
10
23.994333
20
15.096430
11
24.197112
21
14.866264
0
LINE
8
Ebene 1
10
24.197112
20
14.866264
11
24.370786
21
14.783852
0
LINE
8
Ebene 1
10
24.370786
20
14.783852
11
24.544457
21
14.701438
0
LINE
8
Ebene 1
10
24.544457
20
14.701438
11
24.708115
21
14.771426
0
LINE
8
Ebene 1
10
24.708115
20
14.771426
11
24.871770
21
14.841417
0
LINE
8
Ebene 1
10
24.871770
20
14.841417
11
25.005854
21
14.984444
0
LINE
8
Ebene 1
10
25.005854
20
14.984444
11
25.139938
21
15.127471
0
LINE
8
Ebene 1
10
25.139938
20
15.127471
11
25.263879
21
15.401266
0
LINE
8
Ebene 1
10
25.263879
20
15.401266
11
25.387822
21
15.675061
0
LINE
8
Ebene 1
10
25.387822
20
15.675061
11
25.515257
21
16.245686
0
LINE
8
Ebene 1
10
25.515257
20
16.245686
11
25.642692
21
16.816311
0
LINE
8
Ebene 1
10
25.642692
20
16.816311
11
25.889583
21
17.315974
0
LINE
8
Ebene 1
10
25.889583
20
17.315974
11
26.136476
21
17.815637
0
LINE
8
Ebene 1
10
26.136476
20
17.815637
11
26.382418
21
18.139213
0
LINE
8
Ebene 1
10
26.382418
20
18.139213
11
26.628360
21
18.462789
0
LINE
8
Ebene 1
10
26.628360
20
18.462789
11
27.417724
21
19.264841
0
LINE
8
Ebene 1
10
27.417724
20
19.264841
11
28.207088
21
20.066893
0
LINE
8
Ebene 1
10
28.207088
20
20.066893
11
28.680004
21
20.441695
0
LINE
8
Ebene 1
10
28.680004
20
20.441695
11
29.152923
21
20.816500
0
LINE
8
Ebene 1
10
29.152923
20
20.816500
11
29.576058
21
21.100379
0
LINE
8
Ebene 1
10
29.576058
20
21.100379
11
29.999196
21
21.384257
0
LINE
8
Ebene 1
10
29.999196
20
21.384257
11
30.546786
21
21.649060
0
LINE
8
Ebene 1
10
30.546786
20
21.649060
11
31.094376
21
21.913863
0
LINE
8
Ebene 1
10
31.094376
20
21.913863
11
31.449911
21
22.018279
0
LINE
8
Ebene 1
10
31.449911
20
22.018279
11
31.805449
21
22.122695
0
LINE
8
Ebene 1
10
31.805449
20
22.122695
11
32.321077
21
22.201607
0
LINE
8
Ebene 1
10
32.321077
20
22.201607
11
32.836705
21
22.280519
0
LINE
8
Ebene 1
10
32.836705
20
22.280519
11
33.658087
21
22.255768
0
LINE
8
Ebene 1
10
33.658087
20
22.255768
11
34.479472
21
22.231017
0
LINE
8
Ebene 1
10
34.479472
20
22.231017
11
34.852829
21
22.150429
0
LINE
8
Ebene 1
10
34.852829
20
22.150429
11
35.226183
21
22.069843
0
LINE
8
Ebene 1
10
35.226183
20
22.069843
11
35.549759
21
21.965300
0
LINE
8
Ebene 1
10
35.549759
20
21.965300
11
35.873335
21
21.860757
0
LINE
8
Ebene 1
10
35.873335
20
21.860757
11
36.358621
21
21.622514
0
LINE
8
Ebene 1
10
36.358621
20
21.622514
11
36.843905
21
21.384268
0
LINE
8
Ebene 1
10
36.843905
20
21.384268
11
37.254676
21
21.109774
0
LINE
8
Ebene 1
10
37.254676
20
21.109774
11
37.665444
21
20.835282
0
LINE
8
Ebene 1
10
37.665444
20
20.835282
11
38.188142
21
20.414148
0
LINE
8
Ebene 1
10
38.188142
20
20.414148
11
38.710843
21
19.993016
0
LINE
8
Ebene 1
10
38.710843
20
19.993016
11
39.459784
21
19.227909
0
LINE
8
Ebene 1
10
39.459784
20
19.227909
11
40.208728
21
18.462805
0
LINE
8
Ebene 1
10
40.208728
20
18.462805
11
40.471765
21
18.114340
0
LINE
8
Ebene 1
10
40.471765
20
18.114340
11
40.734802
21
17.765875
0
LINE
8
Ebene 1
10
40.734802
20
17.765875
11
40.956073
21
17.317845
0
LINE
8
Ebene 1
10
40.956073
20
17.317845
11
41.177341
21
16.869818
0
LINE
8
Ebene 1
10
41.177341
20
16.869818
11
41.280324
21
16.421791
0
LINE
8
Ebene 1
10
41.280324
20
16.421791
11
41.383304
21
15.973764
0
LINE
8
Ebene 1
10
41.383304
20
15.973764
11
41.480883
21
15.650191
0
LINE
8
Ebene 1
10
41.480883
20
15.650191
11
41.578461
21
15.326615
0
LINE
8
Ebene 1
10
41.578461
20
15.326615
11
41.744543
21
15.098458
0
LINE
8
Ebene 1
10
41.744543
20
15.098458
11
41.910628
21
14.870298
0
LINE
8
Ebene 1
10
41.910628
20
14.870298
11
42.088532
21
14.785877
0
LINE
8
Ebene 1
10
42.088532
20
14.785877
11
42.266436
21
14.701456
0
LINE
8
Ebene 1
10
42.266436
20
14.701456
11
42.430091
21
14.770606
0
LINE
8
Ebene 1
10
42.430091
20
14.770606
11
42.593749
21
14.839759
0
LINE
8
Ebene 1
10
42.593749
20
14.839759
11
42.738340
21
14.983624
0
LINE
8
Ebene 1
10
42.738340
20
14.983624
11
42.882931
21
15.127489
0
LINE
8
Ebene 1
10
42.882931
20
15.127489
11
43.101348
21
15.422055
0
LINE
8
Ebene 1
10
43.101348
20
15.422055
11
43.319765
21
15.716619
0
LINE
8
Ebene 1
10
43.319765
20
15.716619
11
43.713671
21
16.517232
0
LINE
8
Ebene 1
10
43.713671
20
16.517232
11
44.107574
21
17.317845
0
LINE
8
Ebene 1
10
44.107574
20
17.317845
11
44.352808
21
17.940108
0
LINE
8
Ebene 1
10
44.352808
20
17.940108
11
44.598042
21
18.562368
0
LINE
8
Ebene 1
10
44.598042
20
18.562368
11
44.908678
21
19.433531
0
LINE
8
Ebene 1
10
44.908678
20
19.433531
11
45.219314
21
20.304697
0
LINE
8
Ebene 1
10
45.219314
20
20.304697
11
45.357939
21
20.578492
0
LINE
8
Ebene 1
10
45.357939
20
20.578492
11
45.496564
21
20.852287
0
LINE
8
Ebene 1
10
45.496564
20
20.852287
11
45.533298
21
20.708357
0
LINE
8
Ebene 1
10
45.533298
20
20.708357
11
45.570029
21
20.564429
0
LINE
8
Ebene 1
10
45.570029
20
20.564429
11
45.540334
21
19.911864
0
LINE
8
Ebene 1
10
45.540334
20
19.911864
11
45.510638
21
19.259299
0
LINE
8
Ebene 1
10
45.510638
20
19.259299
11
45.408846
21
18.462806
0
LINE
8
Ebene 1
10
45.408846
20
18.462806
11
45.307054
21
17.666313
0
LINE
8
Ebene 1
10
45.307054
20
17.666313
11
45.179145
21
17.044053
0
LINE
8
Ebene 1
10
45.179145
20
17.044053
11
45.051239
21
16.421790
0
LINE
8
Ebene 1
10
45.051239
20
16.421790
11
44.904091
21
15.979997
0
LINE
8
Ebene 1
10
44.904091
20
15.979997
11
44.756949
21
15.538201
0
LINE
8
Ebene 1
10
44.756949
20
15.538201
11
44.478368
21
14.993577
0
LINE
8
Ebene 1
10
44.478368
20
14.993577
11
44.199787
21
14.448953
0
LINE
8
Ebene 1
10
44.199787
20
14.448953
11
43.842045
21
13.913510
0
LINE
8
Ebene 1
10
43.842045
20
13.913510
11
43.484303
21
13.378067
0
LINE
8
Ebene 1
10
43.484303
20
13.378067
11
42.864792
21
12.597452
0
LINE
8
Ebene 1
10
42.864792
20
12.597452
11
42.245284
21
11.816837
0
LINE
8
Ebene 1
10
42.245284
20
11.816837
11
41.994897
21
11.456039
0
LINE
8
Ebene 1
10
41.994897
20
11.456039
11
41.744512
21
11.095241
0
LINE
8
Ebene 1
10
41.744512
20
11.095241
11
41.627105
21
10.746776
0
LINE
8
Ebene 1
10
41.627105
20
10.746776
11
41.509701
21
10.398311
0
LINE
8
Ebene 1
10
41.509701
20
10.398311
11
41.487406
21
9.850721
0
LINE
8
Ebene 1
10
41.487406
20
9.850721
11
41.465110
21
9.303131
0
LINE
8
Ebene 1
10
41.465110
20
9.303131
11
41.620434
21
7.884381
0
LINE
8
Ebene 1
10
41.620434
20
7.884381
11
41.775761
21
6.465631
0
LINE
8
Ebene 1
10
41.775761
20
6.465631
11
41.899651
21
5.470014
0
LINE
8
Ebene 1
10
41.899651
20
5.470014
11
42.023544
21
4.474397
0
LINE
8
Ebene 1
10
42.023544
20
4.474397
11
42.299060
21
2.532947
0
LINE
8
Ebene 1
10
42.299060
20
2.532947
11
42.574576
21
0.591497
0
LINE
8
Ebene 1
10
42.574576
20
0.591497
11
42.775366
21
-0.628133
0
LINE
8
Ebene 1
10
42.775366
20
-0.628133
11
42.976156
21
-1.847763
0
LINE
8
Ebene 1
10
42.976156
20
-1.847763
11
43.003052
21
-2.424684
0
LINE
8
Ebene 1
10
43.003052
20
-2.424684
11
43.029948
21
-3.001608
0
LINE
8
Ebene 1
10
43.029948
20
-3.001608
11
42.970763
21
-3.345631
0
LINE
8
Ebene 1
10
42.970763
20
-3.345631
11
42.911581
21
-3.689654
0
LINE
8
Ebene 1
10
42.911581
20
-3.689654
11
42.793113
21
-3.950278
0
LINE
8
Ebene 1
10
42.793113
20
-3.950278
11
42.674645
21
-4.210904
0
LINE
8
Ebene 1
10
42.674645
20
-4.210904
11
42.541470
21
-4.385509
0
LINE
8
Ebene 1
10
42.541470
20
-4.385509
11
42.408292
21
-4.560111
0
LINE
8
Ebene 1
10
42.408292
20
-4.560111
11
42.111341
21
-4.758406
0
LINE
8
Ebene 1
10
42.111341
20
-4.758406
11
41.814390
21
-4.956704
0
LINE
8
Ebene 1
10
41.814390
20
-4.956704
11
41.482277
21
-5.057505
0
LINE
8
Ebene 1
10
41.482277
20
-5.057505
11
41.150161
21
-5.158312
0
LINE
8
Ebene 1
10
41.150161
20
-5.158312
11
40.303887
21
-5.330758
0
LINE
8
Ebene 1
10
40.303887
20
-5.330758
11
39.457613
21
-5.503204
0
LINE
8
Ebene 1
10
39.457613
20
-5.503204
11
38.760680
21
-5.602662
0
LINE
8
Ebene 1
10
38.760680
20
-5.602662
11
38.063750
21
-5.702114
0
LINE
8
Ebene 1
10
38.063750
20
-5.702114
11
37.541049
21
-5.752756
0
LINE
8
Ebene 1
10
37.541049
20
-5.752756
11
37.018351
21
-5.803398
0
LINE
8
Ebene 1
10
37.018351
20
-5.803398
11
36.246748
21
-5.857867
0
LINE
8
Ebene 1
10
36.246748
20
-5.857867
11
35.475145
21
-5.912333
0
LINE
8
Ebene 1
10
35.475145
20
-5.912333
11
33.658100
21
-5.921100
0
LINE
8
Ebene 1
10
29.999210
20
12.918800
11
30.198332
21
12.914454
0
LINE
8
Ebene 1
10
30.198332
20
12.914454
11
30.400234
21
13.006159
0
LINE
8
Ebene 1
10
30.400234
20
13.006159
11
30.602136
21
13.097867
0
LINE
8
Ebene 1
10
30.602136
20
13.097867
11
30.783334
21
13.309556
0
LINE
8
Ebene 1
10
30.783334
20
13.309556
11
30.964532
21
13.521245
0
LINE
8
Ebene 1
10
30.964532
20
13.521245
11
31.045730
21
13.751899
0
LINE
8
Ebene 1
10
31.045730
20
13.751899
11
31.126931
21
13.982553
0
LINE
8
Ebene 1
10
31.126931
20
13.982553
11
31.166958
21
14.579924
0
LINE
8
Ebene 1
10
31.166958
20
14.579924
11
31.206989
21
15.177292
0
LINE
8
Ebene 1
10
31.206989
20
15.177292
11
31.258977
21
15.307653
0
LINE
8
Ebene 1
10
31.258977
20
15.307653
11
31.310968
21
15.438011
0
LINE
8
Ebene 1
10
31.310968
20
15.438011
11
31.449872
21
15.547276
0
LINE
8
Ebene 1
10
31.449872
20
15.547276
11
31.588779
21
15.656538
0
LINE
8
Ebene 1
10
31.588779
20
15.656538
11
32.038514
21
15.635597
0
LINE
8
Ebene 1
10
32.038514
20
15.635597
11
32.488252
21
15.614684
0
LINE
8
Ebene 1
10
32.488252
20
15.614684
11
32.811828
21
15.527630
0
LINE
8
Ebene 1
10
32.811828
20
15.527630
11
33.135404
21
15.440576
0
LINE
8
Ebene 1
10
33.135404
20
15.440576
11
33.583431
21
15.467189
0
LINE
8
Ebene 1
10
33.583431
20
15.467189
11
34.031458
21
15.493803
0
LINE
8
Ebene 1
10
34.031458
20
15.493803
11
34.249285
21
15.572004
0
LINE
8
Ebene 1
10
34.249285
20
15.572004
11
34.467110
21
15.650205
0
LINE
8
Ebene 1
10
34.467110
20
15.650205
11
34.877300
21
15.650200
0
LINE
8
Ebene 1
10
34.877300
20
15.650200
11
35.287400
21
15.650200
0
LINE
8
Ebene 1
10
35.287400
20
15.650200
11
35.414962
21
15.549859
0
LINE
8
Ebene 1
10
35.414962
20
15.549859
11
35.542524
21
15.449521
0
LINE
8
Ebene 1
10
35.542524
20
15.449521
11
35.591608
21
15.288511
0
LINE
8
Ebene 1
10
35.591608
20
15.288511
11
35.640692
21
15.127503
0
LINE
8
Ebene 1
10
35.640692
20
15.127503
11
35.671178
21
14.604802
0
LINE
8
Ebene 1
10
35.671178
20
14.604802
11
35.701663
21
14.082104
0
LINE
8
Ebene 1
10
35.701663
20
14.082104
11
35.778033
21
13.833198
0
LINE
8
Ebene 1
10
35.778033
20
13.833198
11
35.854399
21
13.584295
0
LINE
8
Ebene 1
10
35.854399
20
13.584295
11
36.021418
21
13.354321
0
LINE
8
Ebene 1
10
36.021418
20
13.354321
11
36.188437
21
13.124347
0
LINE
8
Ebene 1
10
36.188437
20
13.124347
11
36.407501
21
13.018302
0
LINE
8
Ebene 1
10
36.407501
20
13.018302
11
36.626562
21
12.912254
0
LINE
8
Ebene 1
10
36.626562
20
12.912254
11
36.807500
21
12.912200
0
LINE
8
Ebene 1
10
36.807500
20
12.912200
11
36.988500
21
12.912200
0
LINE
8
Ebene 1
10
36.988500
20
12.912200
11
37.252299
21
12.968173
0
LINE
8
Ebene 1
10
37.252299
20
12.968173
11
37.516100
21
13.024146
0
LINE
8
Ebene 1
10
37.516100
20
13.024146
11
37.754267
21
13.144110
0
LINE
8
Ebene 1
10
37.754267
20
13.144110
11
37.992437
21
13.264077
0
LINE
8
Ebene 1
10
37.992437
20
13.264077
11
38.188339
21
13.465939
0
LINE
8
Ebene 1
10
38.188339
20
13.465939
11
38.384238
21
13.667798
0
LINE
8
Ebene 1
10
38.384238
20
13.667798
11
38.508554
21
13.930578
0
LINE
8
Ebene 1
10
38.508554
20
13.930578
11
38.632867
21
14.193358
0
LINE
8
Ebene 1
10
38.632867
20
14.193358
11
38.738604
21
14.578774
0
LINE
8
Ebene 1
10
38.738604
20
14.578774
11
38.844344
21
14.964193
0
LINE
8
Ebene 1
10
38.844344
20
14.964193
11
38.842368
21
15.419174
0
LINE
8
Ebene 1
10
38.842368
20
15.419174
11
38.840393
21
15.874158
0
LINE
8
Ebene 1
10
38.840393
20
15.874158
11
38.762056
21
16.172842
0
LINE
8
Ebene 1
10
38.762056
20
16.172842
11
38.683723
21
16.471529
0
LINE
8
Ebene 1
10
38.683723
20
16.471529
11
38.537425
21
16.770213
0
LINE
8
Ebene 1
10
38.537425
20
16.770213
11
38.391127
21
17.068897
0
LINE
8
Ebene 1
10
38.391127
20
17.068897
11
38.142659
21
17.374261
0
LINE
8
Ebene 1
10
38.142659
20
17.374261
11
37.894194
21
17.679625
0
LINE
8
Ebene 1
10
37.894194
20
17.679625
11
37.563780
21
17.927069
0
LINE
8
Ebene 1
10
37.563780
20
17.927069
11
37.233369
21
18.174513
0
LINE
8
Ebene 1
10
37.233369
20
18.174513
11
36.850160
21
18.378698
0
LINE
8
Ebene 1
10
36.850160
20
18.378698
11
36.466948
21
18.582880
0
LINE
8
Ebene 1
10
36.466948
20
18.582880
11
35.946090
21
18.755893
0
LINE
8
Ebene 1
10
35.946090
20
18.755893
11
35.425232
21
18.928904
0
LINE
8
Ebene 1
10
35.425232
20
18.928904
11
35.051878
21
19.004627
0
LINE
8
Ebene 1
10
35.051878
20
19.004627
11
34.678521
21
19.080347
0
LINE
8
Ebene 1
10
34.678521
20
19.080347
11
34.205604
21
19.138556
0
LINE
8
Ebene 1
10
34.205604
20
19.138556
11
33.732685
21
19.196761
0
LINE
8
Ebene 1
10
33.732685
20
19.196761
11
33.135314
21
19.168138
0
LINE
8
Ebene 1
10
33.135314
20
19.168138
11
32.537946
21
19.139515
0
LINE
8
Ebene 1
10
32.537946
20
19.139515
11
32.089919
21
19.061233
0
LINE
8
Ebene 1
10
32.089919
20
19.061233
11
31.641892
21
18.982953
0
LINE
8
Ebene 1
10
31.641892
20
18.982953
11
31.193865
21
18.856393
0
LINE
8
Ebene 1
10
31.193865
20
18.856393
11
30.745838
21
18.729836
0
LINE
8
Ebene 1
10
30.745838
20
18.729836
11
30.230018
21
18.484690
0
LINE
8
Ebene 1
10
30.230018
20
18.484690
11
29.714195
21
18.239541
0
LINE
8
Ebene 1
10
29.714195
20
18.239541
11
29.402269
21
18.016958
0
LINE
8
Ebene 1
10
29.402269
20
18.016958
11
29.090346
21
17.794372
0
LINE
8
Ebene 1
10
29.090346
20
17.794372
11
28.790731
21
17.467395
0
LINE
8
Ebene 1
10
28.790731
20
17.467395
11
28.491116
21
17.140415
0
LINE
8
Ebene 1
10
28.491116
20
17.140415
11
28.310389
21
16.774655
0
LINE
8
Ebene 1
10
28.310389
20
16.774655
11
28.129663
21
16.408892
0
LINE
8
Ebene 1
10
28.129663
20
16.408892
11
28.057197
21
16.066853
0
LINE
8
Ebene 1
10
28.057197
20
16.066853
11
27.984731
21
15.724814
0
LINE
8
Ebene 1
10
27.984731
20
15.724814
11
27.984166
21
15.401238
0
LINE
8
Ebene 1
10
27.984166
20
15.401238
11
27.983602
21
15.077665
0
LINE
8
Ebene 1
10
27.983602
20
15.077665
11
28.084290
21
14.657637
0
LINE
8
Ebene 1
10
28.084290
20
14.657637
11
28.184981
21
14.237609
0
LINE
8
Ebene 1
10
28.184981
20
14.237609
11
28.339644
21
13.923445
0
LINE
8
Ebene 1
10
28.339644
20
13.923445
11
28.494304
21
13.609281
0
LINE
8
Ebene 1
10
28.494304
20
13.609281
11
28.715222
21
13.405647
0
LINE
8
Ebene 1
10
28.715222
20
13.405647
11
28.936140
21
13.202013
0
LINE
8
Ebene 1
10
28.936140
20
13.202013
11
29.157433
21
13.104124
0
LINE
8
Ebene 1
10
29.157433
20
13.104124
11
29.378729
21
13.006232
0
LINE
8
Ebene 1
10
29.378729
20
13.006232
11
29.589315
21
12.964670
0
LINE
8
Ebene 1
10
29.589315
20
12.964670
11
29.799903
21
12.923107
0
LINE
8
Ebene 1
10
29.799903
20
12.923107
11
29.999028
21
12.918732
0
LINE
8
Ebene 1
10
29.999028
20
12.918732
11
29.999210
21
12.918800
0
LINE
8
Ebene 1
10
47.002910
20
19.284200
11
46.864700
21
19.284200
0
LINE
8
Ebene 1
10
46.864700
20
19.284200
11
46.695550
21
19.397873
0
LINE
8
Ebene 1
10
46.695550
20
19.397873
11
46.526400
21
19.511549
0
LINE
8
Ebene 1
10
46.526400
20
19.511549
11
46.363047
21
19.783676
0
LINE
8
Ebene 1
10
46.363047
20
19.783676
11
46.199694
21
20.055800
0
LINE
8
Ebene 1
10
46.199694
20
20.055800
11
46.076386
21
20.445503
0
LINE
8
Ebene 1
10
46.076386
20
20.445503
11
45.953078
21
20.835206
0
LINE
8
Ebene 1
10
45.953078
20
20.835206
11
45.879029
21
21.291779
0
LINE
8
Ebene 1
10
45.879029
20
21.291779
11
45.804979
21
21.748351
0
LINE
8
Ebene 1
10
45.804979
20
21.748351
11
45.804779
21
22.131702
0
LINE
8
Ebene 1
10
45.804779
20
22.131702
11
45.804581
21
22.515053
0
LINE
8
Ebene 1
10
45.804581
20
22.515053
11
45.858875
21
22.768217
0
LINE
8
Ebene 1
10
45.858875
20
22.768217
11
45.913169
21
23.021381
0
LINE
8
Ebene 1
10
45.913169
20
23.021381
11
46.021776
21
23.092545
0
LINE
8
Ebene 1
10
46.021776
20
23.092545
11
46.130386
21
23.163709
0
LINE
8
Ebene 1
10
46.130386
20
23.163709
11
46.241821
21
23.134568
0
LINE
8
Ebene 1
10
46.241821
20
23.134568
11
46.353256
21
23.105427
0
LINE
8
Ebene 1
10
46.353256
20
23.105427
11
46.381978
21
22.990995
0
LINE
8
Ebene 1
10
46.381978
20
22.990995
11
46.410697
21
22.876563
0
LINE
8
Ebene 1
10
46.410697
20
22.876563
11
46.350383
21
22.586252
0
LINE
8
Ebene 1
10
46.350383
20
22.586252
11
46.290069
21
22.295939
0
LINE
8
Ebene 1
10
46.290069
20
22.295939
11
46.322979
21
21.859406
0
LINE
8
Ebene 1
10
46.322979
20
21.859406
11
46.355889
21
21.422873
0
LINE
8
Ebene 1
10
46.355889
20
21.422873
11
46.473440
21
20.959468
0
LINE
8
Ebene 1
10
46.473440
20
20.959468
11
46.590991
21
20.496065
0
LINE
8
Ebene 1
10
46.590991
20
20.496065
11
46.744260
21
20.192442
0
LINE
8
Ebene 1
10
46.744260
20
20.192442
11
46.897529
21
19.888819
0
LINE
8
Ebene 1
10
46.897529
20
19.888819
11
46.945730
21
19.859028
0
LINE
8
Ebene 1
10
46.945730
20
19.859028
11
46.993933
21
19.829236
0
LINE
8
Ebene 1
10
46.993933
20
19.829236
11
47.046130
21
20.017190
0
LINE
8
Ebene 1
10
47.046130
20
20.017190
11
47.098324
21
20.205141
0
LINE
8
Ebene 1
10
47.098324
20
20.205141
11
47.098607
21
20.595567
0
LINE
8
Ebene 1
10
47.098607
20
20.595567
11
47.098889
21
20.985996
0
LINE
8
Ebene 1
10
47.098889
20
20.985996
11
46.998153
21
21.480315
0
LINE
8
Ebene 1
10
46.998153
20
21.480315
11
46.897417
21
21.974635
0
LINE
8
Ebene 1
10
46.897417
20
21.974635
11
46.799029
21
22.224243
0
LINE
8
Ebene 1
10
46.799029
20
22.224243
11
46.700643
21
22.473856
0
LINE
8
Ebene 1
10
46.700643
20
22.473856
11
46.700700
21
22.619600
0
LINE
8
Ebene 1
10
46.700700
20
22.619600
11
46.700700
21
22.765300
0
LINE
8
Ebene 1
10
46.700700
20
22.765300
11
46.802142
21
22.819591
0
LINE
8
Ebene 1
10
46.802142
20
22.819591
11
46.903584
21
22.873880
0
LINE
8
Ebene 1
10
46.903584
20
22.873880
11
47.006177
21
22.841318
0
LINE
8
Ebene 1
10
47.006177
20
22.841318
11
47.108770
21
22.808756
0
LINE
8
Ebene 1
10
47.108770
20
22.808756
11
47.230684
21
22.533086
0
LINE
8
Ebene 1
10
47.230684
20
22.533086
11
47.352598
21
22.257417
0
LINE
8
Ebene 1
10
47.352598
20
22.257417
11
47.453154
21
21.853515
0
LINE
8
Ebene 1
10
47.453154
20
21.853515
11
47.553707
21
21.449610
0
LINE
8
Ebene 1
10
47.553707
20
21.449610
11
47.581816
21
20.775622
0
LINE
8
Ebene 1
10
47.581816
20
20.775622
11
47.609926
21
20.101639
0
LINE
8
Ebene 1
10
47.609926
20
20.101639
11
47.528533
21
19.821652
0
LINE
8
Ebene 1
10
47.528533
20
19.821652
11
47.447137
21
19.541665
0
LINE
8
Ebene 1
10
47.447137
20
19.541665
11
47.294113
21
19.412904
0
LINE
8
Ebene 1
10
47.294113
20
19.412904
11
47.141089
21
19.284143
0
LINE
8
Ebene 1
10
47.141089
20
19.284143
11
47.002900
21
19.284200
0
LINE
8
Ebene 1
10
47.002900
20
19.284200
11
47.002910
21
19.284200
0
LINE
8
Ebene 1
10
27.186610
20
26.021800
11
23.179260
21
26.014098
0
LINE
8
Ebene 1
10
23.179260
20
26.014098
11
22.962553
21
26.057415
0
LINE
8
Ebene 1
10
22.962553
20
26.057415
11
22.745843
21
26.100733
0
LINE
8
Ebene 1
10
22.745843
20
26.100733
11
22.528656
21
26.228013
0
LINE
8
Ebene 1
10
22.528656
20
26.228013
11
22.311469
21
26.355293
0
LINE
8
Ebene 1
10
22.311469
20
26.355293
11
22.186868
21
26.518650
0
LINE
8
Ebene 1
10
22.186868
20
26.518650
11
22.062270
21
26.682007
0
LINE
8
Ebene 1
10
22.062270
20
26.682007
11
21.986059
21
26.864407
0
LINE
8
Ebene 1
10
21.986059
20
26.864407
11
21.909848
21
27.046806
0
LINE
8
Ebene 1
10
21.909848
20
27.046806
11
21.909800
21
28.118700
0
LINE
8
Ebene 1
10
21.909800
20
28.118700
11
21.909800
21
29.190500
0
LINE
8
Ebene 1
10
21.909800
20
29.190500
11
21.387100
21
29.190500
0
LINE
8
Ebene 1
10
21.387100
20
29.190500
11
20.864400
21
29.190500
0
LINE
8
Ebene 1
10
20.864400
20
29.190500
11
20.864400
21
29.613700
0
LINE
8
Ebene 1
10
20.864400
20
29.613700
11
20.864400
21
30.036800
0
LINE
8
Ebene 1
10
20.864400
20
30.036800
11
21.380700
21
30.036800
0
LINE
8
Ebene 1
10
21.380700
20
30.036800
11
21.897100
21
30.036800
0
LINE
8
Ebene 1
10
21.897100
20
30.036800
11
21.927944
21
30.229684
0
LINE
8
Ebene 1
10
21.927944
20
30.229684
11
21.958788
21
30.422569
0
LINE
8
Ebene 1
10
21.958788
20
30.422569
11
22.120984
21
30.663816
0
LINE
8
Ebene 1
10
22.120984
20
30.663816
11
22.283183
21
30.905063
0
LINE
8
Ebene 1
10
22.283183
20
30.905063
11
22.528160
21
31.055856
0
LINE
8
Ebene 1
10
22.528160
20
31.055856
11
22.773137
21
31.206649
0
LINE
8
Ebene 1
10
22.773137
20
31.206649
11
26.997287
21
31.219919
0
LINE
8
Ebene 1
10
26.997287
20
31.219919
11
31.221437
21
31.233189
0
LINE
8
Ebene 1
10
31.221437
20
31.233189
11
31.468627
21
31.126851
0
LINE
8
Ebene 1
10
31.468627
20
31.126851
11
31.715820
21
31.020513
0
LINE
8
Ebene 1
10
31.715820
20
31.020513
11
31.889336
21
30.828450
0
LINE
8
Ebene 1
10
31.889336
20
30.828450
11
32.062855
21
30.636387
0
LINE
8
Ebene 1
10
32.062855
20
30.636387
11
32.138657
21
30.454966
0
LINE
8
Ebene 1
10
32.138657
20
30.454966
11
32.214459
21
30.273545
0
LINE
8
Ebene 1
10
32.214459
20
30.273545
11
32.214400
21
30.189100
0
LINE
8
Ebene 1
10
32.214400
20
30.189100
11
32.214400
21
30.104700
0
LINE
8
Ebene 1
10
32.214400
20
30.104700
11
32.550422
21
30.192338
0
LINE
8
Ebene 1
10
32.550422
20
30.192338
11
32.886441
21
30.279976
0
LINE
8
Ebene 1
10
32.886441
20
30.279976
11
33.409139
21
30.280682
0
LINE
8
Ebene 1
10
33.409139
20
30.280682
11
33.931840
21
30.281387
0
LINE
8
Ebene 1
10
33.931840
20
30.281387
11
34.130962
21
30.240325
0
LINE
8
Ebene 1
10
34.130962
20
30.240325
11
34.330087
21
30.199262
0
LINE
8
Ebene 1
10
34.330087
20
30.199262
11
34.461775
21
30.163733
0
LINE
8
Ebene 1
10
34.461775
20
30.163733
11
34.593463
21
30.128203
0
LINE
8
Ebene 1
10
34.593463
20
30.128203
11
34.656229
21
30.318970
0
LINE
8
Ebene 1
10
34.656229
20
30.318970
11
34.718998
21
30.509737
0
LINE
8
Ebene 1
10
34.718998
20
30.509737
11
34.839617
21
30.692378
0
LINE
8
Ebene 1
10
34.839617
20
30.692378
11
34.960233
21
30.875019
0
LINE
8
Ebene 1
10
34.960233
20
30.875019
11
35.142969
21
31.000727
0
LINE
8
Ebene 1
10
35.142969
20
31.000727
11
35.325705
21
31.126434
0
LINE
8
Ebene 1
10
35.325705
20
31.126434
11
35.465842
21
31.178997
0
LINE
8
Ebene 1
10
35.465842
20
31.178997
11
35.605979
21
31.231560
0
LINE
8
Ebene 1
10
35.605979
20
31.231560
11
39.784900
21
31.231600
0
LINE
8
Ebene 1
10
39.784900
20
31.231600
11
43.963800
21
31.231600
0
LINE
8
Ebene 1
10
43.963800
20
31.231600
11
44.185000
21
31.127623
0
LINE
8
Ebene 1
10
44.185000
20
31.127623
11
44.406200
21
31.023647
0
LINE
8
Ebene 1
10
44.406200
20
31.023647
11
44.603194
21
30.809932
0
LINE
8
Ebene 1
10
44.603194
20
30.809932
11
44.800191
21
30.596217
0
LINE
8
Ebene 1
10
44.800191
20
30.596217
11
44.888352
21
30.316538
0
LINE
8
Ebene 1
10
44.888352
20
30.316538
11
44.976512
21
30.036859
0
LINE
8
Ebene 1
10
44.976512
20
30.036859
11
45.465200
21
30.036800
0
LINE
8
Ebene 1
10
45.465200
20
30.036800
11
45.953900
21
30.036800
0
LINE
8
Ebene 1
10
45.953900
20
30.036800
11
45.953900
21
29.613700
0
LINE
8
Ebene 1
10
45.953900
20
29.613700
11
45.953900
21
29.190600
0
LINE
8
Ebene 1
10
45.953900
20
29.190600
11
45.459600
21
29.190600
0
LINE
8
Ebene 1
10
45.459600
20
29.190600
11
44.965200
21
29.190600
0
LINE
8
Ebene 1
10
44.965200
20
29.190600
11
44.949339
21
28.082980
0
LINE
8
Ebene 1
10
44.949339
20
28.082980
11
44.933478
21
26.975360
0
LINE
8
Ebene 1
10
44.933478
20
26.975360
11
44.825077
21
26.772841
0
LINE
8
Ebene 1
10
44.825077
20
26.772841
11
44.716676
21
26.570322
0
LINE
8
Ebene 1
10
44.716676
20
26.570322
11
44.515057
21
26.388171
0
LINE
8
Ebene 1
10
44.515057
20
26.388171
11
44.313438
21
26.206020
0
LINE
8
Ebene 1
10
44.313438
20
26.206020
11
44.125650
21
26.117773
0
LINE
8
Ebene 1
10
44.125650
20
26.117773
11
43.937865
21
26.029524
0
LINE
8
Ebene 1
10
43.937865
20
26.029524
11
39.781100
21
26.029500
0
LINE
8
Ebene 1
10
39.781100
20
26.029500
11
35.624400
21
26.029500
0
LINE
8
Ebene 1
10
35.624400
20
26.029500
11
35.395936
21
26.135171
0
LINE
8
Ebene 1
10
35.395936
20
26.135171
11
35.167474
21
26.240842
0
LINE
8
Ebene 1
10
35.167474
20
26.240842
11
34.994540
21
26.413774
0
LINE
8
Ebene 1
10
34.994540
20
26.413774
11
34.821608
21
26.586706
0
LINE
8
Ebene 1
10
34.821608
20
26.586706
11
34.725195
21
26.781021
0
LINE
8
Ebene 1
10
34.725195
20
26.781021
11
34.628783
21
26.975335
0
LINE
8
Ebene 1
10
34.628783
20
26.975335
11
34.603891
21
28.093935
0
LINE
8
Ebene 1
10
34.603891
20
28.093935
11
34.578999
21
29.212535
0
LINE
8
Ebene 1
10
34.578999
20
29.212535
11
34.330096
21
29.311156
0
LINE
8
Ebene 1
10
34.330096
20
29.311156
11
34.081190
21
29.409776
0
LINE
8
Ebene 1
10
34.081190
20
29.409776
11
33.458930
21
29.411639
0
LINE
8
Ebene 1
10
33.458930
20
29.411639
11
32.836670
21
29.413501
0
LINE
8
Ebene 1
10
32.836670
20
29.413501
11
32.562875
21
29.311301
0
LINE
8
Ebene 1
10
32.562875
20
29.311301
11
32.289080
21
29.209101
0
LINE
8
Ebene 1
10
32.289080
20
29.209101
11
32.262523
21
28.117101
0
LINE
8
Ebene 1
10
32.262523
20
28.117101
11
32.235965
21
27.025101
0
LINE
8
Ebene 1
10
32.235965
20
27.025101
11
32.155366
21
26.843921
0
LINE
8
Ebene 1
10
32.155366
20
26.843921
11
32.074763
21
26.662740
0
LINE
8
Ebene 1
10
32.074763
20
26.662740
11
31.895275
21
26.464071
0
LINE
8
Ebene 1
10
31.895275
20
26.464071
11
31.715790
21
26.265401
0
LINE
8
Ebene 1
10
31.715790
20
26.265401
11
31.454856
21
26.147443
0
LINE
8
Ebene 1
10
31.454856
20
26.147443
11
31.193922
21
26.029488
0
LINE
8
Ebene 1
10
31.193922
20
26.029488
11
27.186610
21
26.021800
0
LINE
8
Ebene 1
10
27.136829
20
26.864653
11
31.044619
21
26.875775
0
LINE
8
Ebene 1
10
31.044619
20
26.875775
11
31.156641
21
26.949985
0
LINE
8
Ebene 1
10
31.156641
20
26.949985
11
31.268661
21
27.024195
0
LINE
8
Ebene 1
10
31.268661
20
27.024195
11
31.345572
21
27.186268
0
LINE
8
Ebene 1
10
31.345572
20
27.186268
11
31.422480
21
27.348342
0
LINE
8
Ebene 1
10
31.422480
20
27.348342
11
31.407777
21
28.714302
0
LINE
8
Ebene 1
10
31.407777
20
28.714302
11
31.393073
21
30.080262
0
LINE
8
Ebene 1
10
31.393073
20
30.080262
11
31.246862
21
30.232790
0
LINE
8
Ebene 1
10
31.246862
20
30.232790
11
31.100651
21
30.385319
0
LINE
8
Ebene 1
10
31.100651
20
30.385319
11
27.073900
21
30.385300
0
LINE
8
Ebene 1
10
27.073900
20
30.385300
11
23.047100
21
30.385300
0
LINE
8
Ebene 1
10
23.047100
20
30.385300
11
22.901586
21
30.239787
0
LINE
8
Ebene 1
10
22.901586
20
30.239787
11
22.756072
21
30.094274
0
LINE
8
Ebene 1
10
22.756072
20
30.094274
11
22.756100
21
28.657900
0
LINE
8
Ebene 1
10
22.756100
20
28.657900
11
22.756100
21
27.221500
0
LINE
8
Ebene 1
10
22.756100
20
27.221500
11
22.837160
21
27.105773
0
LINE
8
Ebene 1
10
22.837160
20
27.105773
11
22.918217
21
26.990046
0
LINE
8
Ebene 1
10
22.918217
20
26.990046
11
23.073617
21
26.921787
0
LINE
8
Ebene 1
10
23.073617
20
26.921787
11
23.229020
21
26.853528
0
LINE
8
Ebene 1
10
23.229020
20
26.853528
11
27.136829
21
26.864653
0
LINE
8
Ebene 1
10
39.756229
20
26.855653
11
43.539569
21
26.851442
0
LINE
8
Ebene 1
10
43.539569
20
26.851442
11
43.728838
21
26.904000
0
LINE
8
Ebene 1
10
43.728838
20
26.904000
11
43.918105
21
26.956559
0
LINE
8
Ebene 1
10
43.918105
20
26.956559
11
44.014890
21
27.115292
0
LINE
8
Ebene 1
10
44.014890
20
27.115292
11
44.111678
21
27.274025
0
LINE
8
Ebene 1
10
44.111678
20
27.274025
11
44.111876
21
28.633825
0
LINE
8
Ebene 1
10
44.111876
20
28.633825
11
44.112076
21
29.993625
0
LINE
8
Ebene 1
10
44.112076
20
29.993625
11
44.056467
21
30.102359
0
LINE
8
Ebene 1
10
44.056467
20
30.102359
11
44.000861
21
30.211093
0
LINE
8
Ebene 1
10
44.000861
20
30.211093
11
43.894681
21
30.297102
0
LINE
8
Ebene 1
10
43.894681
20
30.297102
11
43.788501
21
30.383112
0
LINE
8
Ebene 1
10
43.788501
20
30.383112
11
39.764871
21
30.384212
0
LINE
8
Ebene 1
10
39.764871
20
30.384212
11
35.741241
21
30.385313
0
LINE
8
Ebene 1
10
35.741241
20
30.385313
11
35.595727
21
30.239800
0
LINE
8
Ebene 1
10
35.595727
20
30.239800
11
35.450213
21
30.094287
0
LINE
8
Ebene 1
10
35.450213
20
30.094287
11
35.450200
21
28.653500
0
LINE
8
Ebene 1
10
35.450200
20
28.653500
11
35.450200
21
27.212700
0
LINE
8
Ebene 1
10
35.450200
20
27.212700
11
35.552895
21
27.082146
0
LINE
8
Ebene 1
10
35.552895
20
27.082146
11
35.655587
21
26.951592
0
LINE
8
Ebene 1
10
35.655587
20
26.951592
11
35.814244
21
26.905689
0
LINE
8
Ebene 1
10
35.814244
20
26.905689
11
35.972898
21
26.859786
0
LINE
8
Ebene 1
10
35.972898
20
26.859786
11
39.756238
21
26.855575
0
LINE
8
Ebene 1
10
39.756238
20
26.855575
11
39.756229
21
26.855653
0
LINE
8
Ebene 1
10
22.153600
20
36.956400
11
22.108900
21
36.956400
0
LINE
8
Ebene 1
10
22.108900
20
36.956400
11
22.108900
21
37.056900
0
LINE
8
Ebene 1
10
22.108900
20
37.056900
11
22.108900
21
37.157500
0
LINE
8
Ebene 1
10
22.108900
20
37.157500
11
22.338499
21
37.616978
0
LINE
8
Ebene 1
10
22.338499
20
37.616978
11
22.568101
21
38.076456
0
LINE
8
Ebene 1
10
22.568101
20
38.076456
11
22.896715
21
38.624045
0
LINE
8
Ebene 1
10
22.896715
20
38.624045
11
23.225329
21
39.171634
0
LINE
8
Ebene 1
10
23.225329
20
39.171634
11
23.657055
21
39.745223
0
LINE
8
Ebene 1
10
23.657055
20
39.745223
11
24.088784
21
40.318812
0
LINE
8
Ebene 1
10
24.088784
20
40.318812
11
24.569270
21
40.801647
0
LINE
8
Ebene 1
10
24.569270
20
40.801647
11
25.049759
21
41.284482
0
LINE
8
Ebene 1
10
25.049759
20
41.284482
11
25.583006
21
41.686186
0
LINE
8
Ebene 1
10
25.583006
20
41.686186
11
26.116256
21
42.087890
0
LINE
8
Ebene 1
10
26.116256
20
42.087890
11
26.813189
21
42.431820
0
LINE
8
Ebene 1
10
26.813189
20
42.431820
11
27.510119
21
42.775750
0
LINE
8
Ebene 1
10
27.510119
20
42.775750
11
27.958146
21
42.925247
0
LINE
8
Ebene 1
10
27.958146
20
42.925247
11
28.406173
21
43.074744
0
LINE
8
Ebene 1
10
28.406173
20
43.074744
11
28.903982
21
43.200272
0
LINE
8
Ebene 1
10
28.903982
20
43.200272
11
29.401791
21
43.325800
0
LINE
8
Ebene 1
10
29.401791
20
43.325800
11
29.974270
21
43.423420
0
LINE
8
Ebene 1
10
29.974270
20
43.423420
11
30.546749
21
43.521041
0
LINE
8
Ebene 1
10
30.546749
20
43.521041
11
31.094339
21
43.586475
0
LINE
8
Ebene 1
10
31.094339
20
43.586475
11
31.641929
21
43.651909
0
LINE
8
Ebene 1
10
31.641929
20
43.651909
11
33.434039
21
43.651288
0
LINE
8
Ebene 1
10
33.434039
20
43.651288
11
35.226149
21
43.650667
0
LINE
8
Ebene 1
10
35.226149
20
43.650667
11
35.947971
21
43.560941
0
LINE
8
Ebene 1
10
35.947971
20
43.560941
11
36.669793
21
43.471214
0
LINE
8
Ebene 1
10
36.669793
20
43.471214
11
37.292053
21
43.345281
0
LINE
8
Ebene 1
10
37.292053
20
43.345281
11
37.914313
21
43.219348
0
LINE
8
Ebene 1
10
37.914313
20
43.219348
11
38.486792
21
43.046562
0
LINE
8
Ebene 1
10
38.486792
20
43.046562
11
39.059271
21
42.873776
0
LINE
8
Ebene 1
10
39.059271
20
42.873776
11
39.557080
21
42.663397
0
LINE
8
Ebene 1
10
39.557080
20
42.663397
11
40.054889
21
42.453018
0
LINE
8
Ebene 1
10
40.054889
20
42.453018
11
40.541589
21
42.166427
0
LINE
8
Ebene 1
10
40.541589
20
42.166427
11
41.028289
21
41.879836
0
LINE
8
Ebene 1
10
41.028289
20
41.879836
11
41.515997
21
41.487540
0
LINE
8
Ebene 1
10
41.515997
20
41.487540
11
42.003702
21
41.095244
0
LINE
8
Ebene 1
10
42.003702
20
41.095244
11
42.412148
21
40.663749
0
LINE
8
Ebene 1
10
42.412148
20
40.663749
11
42.820594
21
40.232254
0
LINE
8
Ebene 1
10
42.820594
20
40.232254
11
43.112112
21
39.849302
0
LINE
8
Ebene 1
10
43.112112
20
39.849302
11
43.403628
21
39.466349
0
LINE
8
Ebene 1
10
43.403628
20
39.466349
11
43.734855
21
38.960819
0
LINE
8
Ebene 1
10
43.734855
20
38.960819
11
44.066082
21
38.455289
0
LINE
8
Ebene 1
10
44.066082
20
38.455289
11
44.412631
21
37.787926
0
LINE
8
Ebene 1
10
44.412631
20
37.787926
11
44.759177
21
37.120563
0
LINE
8
Ebene 1
10
44.759177
20
37.120563
11
44.759200
21
37.034800
0
LINE
8
Ebene 1
10
44.759200
20
37.034800
11
44.759200
21
36.949000
0
LINE
8
Ebene 1
10
44.759200
20
36.949000
11
44.691831
21
36.965095
0
LINE
8
Ebene 1
10
44.691831
20
36.965095
11
44.624462
21
36.981190
0
LINE
8
Ebene 1
10
44.624462
20
36.981190
11
44.117938
21
37.617332
0
LINE
8
Ebene 1
10
44.117938
20
37.617332
11
43.611414
21
38.253474
0
LINE
8
Ebene 1
10
43.611414
20
38.253474
11
43.096483
21
38.836963
0
LINE
8
Ebene 1
10
43.096483
20
38.836963
11
42.581552
21
39.420452
0
LINE
8
Ebene 1
10
42.581552
20
39.420452
11
42.139615
21
39.844278
0
LINE
8
Ebene 1
10
42.139615
20
39.844278
11
41.697681
21
40.268104
0
LINE
8
Ebene 1
10
41.697681
20
40.268104
11
41.326926
21
40.585917
0
LINE
8
Ebene 1
10
41.326926
20
40.585917
11
40.956171
21
40.903730
0
LINE
8
Ebene 1
10
40.956171
20
40.903730
11
40.612964
21
41.125750
0
LINE
8
Ebene 1
10
40.612964
20
41.125750
11
40.269757
21
41.347770
0
LINE
8
Ebene 1
10
40.269757
20
41.347770
11
39.863651
21
41.537979
0
LINE
8
Ebene 1
10
39.863651
20
41.537979
11
39.457545
21
41.728188
0
LINE
8
Ebene 1
10
39.457545
20
41.728188
11
39.089451
21
41.830105
0
LINE
8
Ebene 1
10
39.089451
20
41.830105
11
38.721360
21
41.932021
0
LINE
8
Ebene 1
10
38.721360
20
41.932021
11
38.208241
21
41.991667
0
LINE
8
Ebene 1
10
38.208241
20
41.991667
11
37.695122
21
42.051312
0
LINE
8
Ebene 1
10
37.695122
20
42.051312
11
37.033128
21
41.992675
0
LINE
8
Ebene 1
10
37.033128
20
41.992675
11
36.371131
21
41.934037
0
LINE
8
Ebene 1
10
36.371131
20
41.934037
11
35.549749
21
41.765176
0
LINE
8
Ebene 1
10
35.549749
20
41.765176
11
34.728364
21
41.596315
0
LINE
8
Ebene 1
10
34.728364
20
41.596315
11
34.162416
21
41.412478
0
LINE
8
Ebene 1
10
34.162416
20
41.412478
11
33.596465
21
41.228641
0
LINE
8
Ebene 1
10
33.596465
20
41.228641
11
33.365921
21
41.248887
0
LINE
8
Ebene 1
10
33.365921
20
41.248887
11
33.135379
21
41.269134
0
LINE
8
Ebene 1
10
33.135379
20
41.269134
11
32.541053
21
41.454389
0
LINE
8
Ebene 1
10
32.541053
20
41.454389
11
31.946727
21
41.639644
0
LINE
8
Ebene 1
10
31.946727
20
41.639644
11
31.221860
21
41.786690
0
LINE
8
Ebene 1
10
31.221860
20
41.786690
11
30.496993
21
41.933736
0
LINE
8
Ebene 1
10
30.496993
20
41.933736
11
29.816344
21
41.991305
0
LINE
8
Ebene 1
10
29.816344
20
41.991305
11
29.135695
21
42.048874
0
LINE
8
Ebene 1
10
29.135695
20
42.048874
11
28.644366
21
41.993005
0
LINE
8
Ebene 1
10
28.644366
20
41.993005
11
28.153041
21
41.937135
0
LINE
8
Ebene 1
10
28.153041
20
41.937135
11
27.707142
21
41.808447
0
LINE
8
Ebene 1
10
27.707142
20
41.808447
11
27.261243
21
41.679759
0
LINE
8
Ebene 1
10
27.261243
20
41.679759
11
26.821507
21
41.460559
0
LINE
8
Ebene 1
10
26.821507
20
41.460559
11
26.381774
21
41.241359
0
LINE
8
Ebene 1
10
26.381774
20
41.241359
11
25.978992
21
40.953165
0
LINE
8
Ebene 1
10
25.978992
20
40.953165
11
25.576213
21
40.664971
0
LINE
8
Ebene 1
10
25.576213
20
40.664971
11
24.830159
21
39.943149
0
LINE
8
Ebene 1
10
24.830159
20
39.943149
11
24.084102
21
39.221327
0
LINE
8
Ebene 1
10
24.084102
20
39.221327
11
23.581374
21
38.648848
0
LINE
8
Ebene 1
10
23.581374
20
38.648848
11
23.078646
21
38.076368
0
LINE
8
Ebene 1
10
23.078646
20
38.076368
11
22.638478
21
37.516334
0
LINE
8
Ebene 1
10
22.638478
20
37.516334
11
22.198313
21
36.956300
0
LINE
8
Ebene 1
10
22.198313
20
36.956300
11
22.153600
21
36.956400
 0 
ENDSEC
 0 
EOF