<?xml version="1.0" encoding="UTF-8" standalone="no"?>
<!-- Created with Inkscape (http://www.inkscape.org/) -->

<svg
   width="80.277939mm"
   height="23.769354mm"
   viewBox="0 0 80.277939 23.769354"
   version="1.1"
   id="svg1941"
   inkscape:version="1.1.2 (b8e25be833, 2022-02-05)"
   sodipodi:docname="BCDC-part4.svg"
   xmlns:inkscape="http://www.inkscape.org/namespaces/inkscape"
   xmlns:sodipodi="http://sodipodi.sourceforge.net/DTD/sodipodi-0.dtd"
   xmlns="http://www.w3.org/2000/svg"
   xmlns:svg="http://www.w3.org/2000/svg">
  <sodipodi:namedview
     id="namedview1943"
     pagecolor="#ffffff"
     bordercolor="#666666"
     borderopacity="1.0"
     inkscape:pageshadow="2"
     inkscape:pageopacity="0.0"
     inkscape:pagecheckerboard="0"
     inkscape:document-units="mm"
     showgrid="false"
     fit-margin-top="0"
     fit-margin-left="0"
     fit-margin-right="0"
     fit-margin-bottom="0"
     inkscape:zoom="0.64052329"
     inkscape:cx="1178.7237"
     inkscape:cy="763.43828"
     inkscape:window-width="3840"
     inkscape:window-height="2066"
     inkscape:window-x="-11"
     inkscape:window-y="-11"
     inkscape:window-maximized="1"
     inkscape:current-layer="layer1" />
  <defs
     id="defs1938" />
  <g
     inkscape:label="Ebene 1"
     inkscape:groupmode="layer"
     id="layer1"
     transform="translate(207.02075,53.605122)">
    <path
       style="fill:#000000;stroke-width:1"
       d="m -207.02075,-30.222822 c 0,-0.94814 3.16088,-6.436813 5.4856,-9.525406 6.17367,-8.202263 13.72345,-12.10162 26.3526,-13.610744 3.08253,-0.368348 13.96774,-0.311134 17.19791,0.0904 14.83128,1.843611 23.34237,7.648295 29.99291,20.455583 1.95355,3.762045 1.6226,3.95354 -1.04426,0.604232 -9.85107,-12.371924 -16.19865,-16.291978 -25.10369,-15.503194 -2.88962,0.255955 -7.49856,1.187464 -10.17182,2.055816 -2.40436,0.781005 -2.7954,0.770897 -5.74499,-0.148507 -4.75257,-1.481409 -10.53455,-2.280616 -13.80716,-1.908482 -3.3934,0.385868 -6.56152,1.621845 -9.44425,3.684471 -2.82505,2.02136 -8.20125,7.55257 -11.83647,12.177758 -1.5816,2.012313 -1.87638,2.268079 -1.87638,1.628073 z"
       id="path967" />
  </g>
</svg>
