<?xml version="1.0" encoding="UTF-8" standalone="no"?>
<!-- Created with Inkscape (http://www.inkscape.org/) -->

<svg
   width="38.459187mm"
   height="22.15535mm"
   viewBox="0 0 38.459186 22.15535"
   version="1.1"
   id="svg5"
   inkscape:version="1.1.2 (b8e25be833, 2022-02-05)"
   sodipodi:docname="BCDC-part2.svg"
   xmlns:inkscape="http://www.inkscape.org/namespaces/inkscape"
   xmlns:sodipodi="http://sodipodi.sourceforge.net/DTD/sodipodi-0.dtd"
   xmlns="http://www.w3.org/2000/svg"
   xmlns:svg="http://www.w3.org/2000/svg">
  <sodipodi:namedview
     id="namedview7"
     pagecolor="#ffffff"
     bordercolor="#666666"
     borderopacity="1.0"
     inkscape:pageshadow="2"
     inkscape:pageopacity="0.0"
     inkscape:pagecheckerboard="0"
     inkscape:document-units="mm"
     showgrid="false"
     fit-margin-top="0"
     fit-margin-left="0"
     fit-margin-right="0"
     fit-margin-bottom="0"
     inkscape:zoom="0.64052329"
     inkscape:cx="-765.78012"
     inkscape:cy="212.32639"
     inkscape:window-width="1920"
     inkscape:window-height="1017"
     inkscape:window-x="-8"
     inkscape:window-y="-8"
     inkscape:window-maximized="1"
     inkscape:current-layer="layer1" />
  <defs
     id="defs2" />
  <g
     inkscape:label="Ebene 1"
     inkscape:groupmode="layer"
     id="layer1"
     transform="translate(-307.60818,-92.133607)">
    <path
       style="fill:#000000;stroke-width:1"
       d="m 316.13992,113.95195 c 0.90006,-0.40882 1.91277,-1.5788 2.28719,-2.64239 0.15824,-0.4495 0.35154,-1.76978 0.42955,-2.93394 0.23094,-3.44632 0.57063,-3.85778 3.08819,-3.74064 0.87646,0.0408 2.10949,0.21295 2.74008,0.38261 1.35551,0.36468 3.85446,0.28753 5.09336,-0.15724 0.46515,-0.167 1.3493,-0.2771 2.22517,-0.2771 2.3066,0 2.62131,0.41439 2.81319,3.70417 0.27083,4.64356 2.10409,6.54114 5.60231,5.7989 2.02191,-0.42901 3.62029,-1.65352 4.45129,-3.41011 2.43107,-5.13886 1.08267,-10.843191 -3.34736,-14.160811 -8.64271,-6.472462 -24.41982,-5.6458 -31.08565,1.62878 -3.07265,3.353251 -3.70045,8.286611 -1.59799,12.557301 1.34046,2.72287 4.93692,4.32412 7.30067,3.25047 z"
       id="path9" />
  </g>
</svg>
