<?xml version="1.0" encoding="UTF-8" standalone="no"?>
<!-- Created with Inkscape (http://www.inkscape.org/) -->

<svg
   version="1.0"
   width="318.35214"
   height="345.30847"
   id="svg2"
   sodipodi:docname="Cat_silhouette.svg"
   inkscape:version="1.1.2 (b8e25be833, 2022-02-05)"
   xmlns:inkscape="http://www.inkscape.org/namespaces/inkscape"
   xmlns:sodipodi="http://sodipodi.sourceforge.net/DTD/sodipodi-0.dtd"
   xmlns="http://www.w3.org/2000/svg"
   xmlns:svg="http://www.w3.org/2000/svg">
  <sodipodi:namedview
     id="namedview5"
     pagecolor="#ffffff"
     bordercolor="#666666"
     borderopacity="1.0"
     inkscape:pageshadow="2"
     inkscape:pageopacity="0.0"
     inkscape:pagecheckerboard="0"
     showgrid="false"
     fit-margin-top="0"
     fit-margin-left="0"
     fit-margin-right="0"
     fit-margin-bottom="0"
     inkscape:zoom="1.8921053"
     inkscape:cx="159.08206"
     inkscape:cy="172.29485"
     inkscape:window-width="3840"
     inkscape:window-height="2066"
     inkscape:window-x="-11"
     inkscape:window-y="-11"
     inkscape:window-maximized="1"
     inkscape:current-layer="svg2" />
  <defs
     id="defs5" />
  <path
     d="m 110.52512,289.85879 h 113 c 0,-16.06359 -1.14694,-19.25 -27.75,-19.25 4.25,-12.75 21.5252,-43.59647 31.125,-43.59647 8.49303,0 18.625,0.46784 18.625,19.84647 0,22 37.02267,57.47092 46,43 13.37865,-21.56558 -23,-14.98941 -23,-67 0,-71.1532 41.52513,-61.02384 41.52513,-101 0,-20 -5.52513,-22.700814 -5.52513,-37.000004 0,-18.8976 16.64813,-17.800973 13.40901,-33.469671 -2.23744,-10.823223 -3.98843,-19.502889 -5.29289,-32.59099 -0.92557,-9.2865841 -1.22064,-19.18449107 -10.86661,-18.78650707 -11.3335,0.46761 -15.63306,20.41680807 -33.24951,21.84716707 -17.58053,1.427442 -32.5707,-14.9665211 -39.375,-12.6250001 -6.74695,2.3217851 -4.625,20.6250001 -0.625,33.6250001 6.28684,20.432222 20,47.000001 -5,51.000001 -25,4 -68,8.000004 -99,49.000004 -30.999999,41 -29.855619,89.11665 -41.999999,104 C 41.766777,296.80953 0,276.30049 0,317.85879 c 0,18.60564 31.525126,32 36.525126,26 5,-6 -42.485281,-23.87868 10.646447,-45 45.391618,-18.04441 49.443648,-21.72792 63.353547,-9 z"
     style="fill:#000000;fill-opacity:1;fill-rule:evenodd;stroke:none;stroke-width:1px;stroke-linecap:butt;stroke-linejoin:miter;stroke-opacity:1"
     id="path1891" />
</svg>
