<?xml version="1.0" encoding="UTF-8" standalone="no"?>
<!-- Created with Inkscape (http://www.inkscape.org/) -->

<svg
   width="136.33836mm"
   height="185mm"
   viewBox="0 0 136.33836 184.99999"
   version="1.1"
   id="svg3900"
   inkscape:version="1.1.2 (b8e25be833, 2022-02-05)"
   sodipodi:docname="flame-line.svg"
   xmlns:inkscape="http://www.inkscape.org/namespaces/inkscape"
   xmlns:sodipodi="http://sodipodi.sourceforge.net/DTD/sodipodi-0.dtd"
   xmlns="http://www.w3.org/2000/svg"
   xmlns:svg="http://www.w3.org/2000/svg">
  <sodipodi:namedview
     id="namedview3902"
     pagecolor="#ffffff"
     bordercolor="#666666"
     borderopacity="1.0"
     inkscape:pageshadow="2"
     inkscape:pageopacity="0.0"
     inkscape:pagecheckerboard="0"
     inkscape:document-units="mm"
     showgrid="false"
     fit-margin-top="0"
     fit-margin-left="0"
     fit-margin-right="0"
     fit-margin-bottom="0"
     inkscape:zoom="3.6233469"
     inkscape:cx="447.37643"
     inkscape:cy="563.29136"
     inkscape:window-width="3840"
     inkscape:window-height="2066"
     inkscape:window-x="-11"
     inkscape:window-y="-11"
     inkscape:window-maximized="1"
     inkscape:current-layer="layer1" />
  <defs
     id="defs3897" />
  <g
     inkscape:label="Ebene 1"
     inkscape:groupmode="layer"
     id="layer1"
     transform="translate(57.591021,41.201111)">
    <path
       style="fill:none;stroke:#000000;stroke-width:0.1;stroke-miterlimit:4;stroke-dasharray:none;stroke-opacity:1"
       d="M 69.893076,120.02162 C 82.907463,96.840491 80.138527,59.349078 70.376762,43.465467 60.614996,27.581857 53.536892,37.352696 55.595017,47.199981 57.23652,55.053896 49.616852,68.662092 40.490812,65.838893 24.598585,60.92253 37.870747,33.712975 38.914648,21.570477 42.040585,-13.247717 -15.728607,-71.14928 -7.9396061,-22.481077 -6.7711877,-15.18042 -7.3049598,-6.2992204 -9.1083119,1.4817279 -13.550099,16.068215 -23.627746,26.54112 -34.888574,37.925269 -46.149404,49.309418 -58.23892,65.839799 -57.509561,83.447268 -56.280909,113.10822 -17.010473,140.34131 -7.5415217,143.14281 1.9274304,145.9443 7.82027,137.15304 0.21983082,132.46425 -7.3806084,127.77545 -20.989519,113.49215 -20.552502,95.367725 -22.006143,73.618058 10.212881,40.297646 13.310583,59.98524 c 3.097703,19.687593 7.829538,20.144548 16.599035,23.511573 8.769495,3.367025 10.410662,9.361271 12.604002,15.344018 m 0,0 c 2.19334,5.982749 0.979266,19.876159 -2.935706,24.035709 -3.914972,4.15955 -12.54374,19.323 1.818139,20.17206 14.361879,0.84906 26.128952,-18.80899 28.497023,-23.02698"
       id="path2092"
       sodipodi:nodetypes="cssscsszszzczzcczzc" />
  </g>
</svg>
