<?xml version="1.0" encoding="UTF-8" standalone="no"?>
<!-- Created with Inkscape (http://www.inkscape.org/) -->

<svg
   width="94.724632mm"
   height="175.68938mm"
   viewBox="0 0 94.724632 175.68938"
   version="1.1"
   id="svg5"
   inkscape:version="1.1.2 (b8e25be833, 2022-02-05)"
   sodipodi:docname="BCDC.svg"
   xmlns:inkscape="http://www.inkscape.org/namespaces/inkscape"
   xmlns:sodipodi="http://sodipodi.sourceforge.net/DTD/sodipodi-0.dtd"
   xmlns="http://www.w3.org/2000/svg"
   xmlns:svg="http://www.w3.org/2000/svg">
  <sodipodi:namedview
     id="namedview7"
     pagecolor="#ffffff"
     bordercolor="#666666"
     borderopacity="1.0"
     inkscape:pageshadow="2"
     inkscape:pageopacity="0.0"
     inkscape:pagecheckerboard="0"
     inkscape:document-units="mm"
     showgrid="false"
     fit-margin-top="0"
     fit-margin-left="0"
     fit-margin-right="0"
     fit-margin-bottom="0"
     inkscape:zoom="0.64052329"
     inkscape:cx="-671.3261"
     inkscape:cy="540.18333"
     inkscape:window-width="3840"
     inkscape:window-height="2066"
     inkscape:window-x="-11"
     inkscape:window-y="-11"
     inkscape:window-maximized="1"
     inkscape:current-layer="layer1" />
  <defs
     id="defs2" />
  <g
     inkscape:label="Ebene 1"
     inkscape:groupmode="layer"
     id="layer1"
     transform="translate(-282.3516,-5.3502051)">
    <path
       style="fill:#000000;stroke-width:1"
       d="m 317.80577,180.84212 c -7.22817,-0.4323 -13.59364,-1.33461 -18.4717,-2.61835 -6.19623,-1.63067 -7.45916,-5.03831 -5.7194,-15.43218 2.23212,-13.33542 4.93605,-35.19425 4.70016,-37.99651 -0.21929,-2.60503 -1.06177,-4.61098 -2.80977,-6.69002 -4.70986,-5.60185 -7.86154,-10.5213 -9.23674,-14.41762 -1.36816,-3.876371 -2.70004,-13.243707 -2.34297,-16.478493 0.11682,-1.058333 0.11682,-1.058333 0.7031,0.176389 0.32246,0.679098 1.40716,3.363375 2.41044,5.965063 3.10033,8.039661 4.6198,11.170901 6.40299,13.194931 0.99598,1.1305 1.76242,1.47948 2.52914,1.15159 1.33428,-0.57062 2.15596,-2.07142 2.85995,-5.22376 0.52364,-2.34474 1.68851,-4.888341 3.07262,-6.709351 1.28731,-1.69365 6.21546,-6.632297 8.14107,-8.158412 4.75237,-3.766421 8.45298,-5.555109 12.90144,-6.235906 2.25477,-0.345073 6.97375,-0.24965 8.97078,0.181396 5.45661,1.177782 10.42593,4.330175 16.32388,10.35539 4.1494,4.238952 5.68295,6.602712 6.45072,9.942953 0.85263,3.70945 1.58364,5.18911 2.86373,5.79655 0.55468,0.26321 0.7,0.26971 1.21026,0.0541 2.25096,-0.95112 5.22548,-6.54703 8.7824,-16.522193 0.60537,-1.697743 1.32171,-3.523368 1.59187,-4.056944 0.48912,-0.966052 0.49173,-0.967991 0.62134,-0.460156 0.33847,1.326199 -0.37409,8.698852 -1.25486,12.983772 -1.1383,5.537741 -3.13333,9.370821 -8.20047,15.755671 -4.25653,5.36343 -4.74201,6.33155 -4.88057,9.73252 -0.14589,3.5805 2.2515,23.08586 4.56359,37.12986 1.278,7.76279 1.08896,10.79916 -0.82886,13.31355 -0.67191,0.88092 -2.37923,1.96411 -3.75305,2.3811 -2.72408,0.8268 -9.61038,2.04159 -13.96498,2.46348 -6.30499,0.61087 -17.21691,0.8055 -23.63611,0.42157 z m -1.66585,-66.89017 c 0.90006,-0.40882 1.91277,-1.5788 2.28719,-2.64239 0.15824,-0.4495 0.35154,-1.76978 0.42955,-2.93394 0.23094,-3.44632 0.57063,-3.85778 3.08819,-3.74064 0.87646,0.0408 2.10949,0.21295 2.74008,0.38261 1.35551,0.36468 3.85446,0.28753 5.09336,-0.15724 0.46515,-0.167 1.3493,-0.2771 2.22517,-0.2771 2.3066,0 2.62131,0.41439 2.81319,3.70417 0.27083,4.64356 2.10409,6.54114 5.60231,5.7989 2.02191,-0.42901 3.62029,-1.65352 4.45129,-3.41011 2.43107,-5.13886 1.08267,-10.843191 -3.34736,-14.160811 -8.64271,-6.472462 -24.41982,-5.6458 -31.08565,1.62878 -3.07265,3.353251 -3.70045,8.286611 -1.59799,12.557301 1.34046,2.72287 4.93692,4.32412 7.30067,3.25047 z m 57.7395,-22.647873 c -1.6488,-1.108065 -3.15421,-5.728251 -3.15627,-9.686795 -10e-4,-2.600376 0.53006,-3.819811 1.54857,-3.553464 0.52944,0.13845 0.64173,0.705581 0.38467,1.942853 -0.42906,2.065214 0.25495,6.222323 1.39563,8.481997 0.68503,1.357034 0.84019,1.447118 1.06962,0.620976 0.4422,-1.592371 -0.009,-5.621509 -0.87559,-7.820278 -0.61411,-1.558029 -0.29372,-2.512788 0.73379,-2.186668 1.35141,0.428919 2.6516,7.945164 1.85086,10.699607 -0.50373,1.73277 -1.701,2.342007 -2.95128,1.501772 z m -84.0936,-23.596825 c -1.00332,-0.200552 -2.1957,-0.909563 -2.74848,-1.634301 -0.9138,-1.198058 -0.98157,-1.589494 -0.98157,-5.66945 0,-3.798027 0,-3.798027 -1.85209,-3.798027 -1.85208,0 -1.85208,0 -1.85208,-1.499305 0,-1.499306 0,-1.499306 1.82954,-1.499306 1.82954,0 1.82954,0 1.93883,-0.683449 0.15776,-0.986564 1.11558,-2.304972 2.12674,-2.927383 0.86803,-0.534307 0.86803,-0.534307 15.83551,-0.581329 14.94574,-0.04695 14.96874,-0.04647 15.84334,0.329768 1.30972,0.563427 2.64271,2.239397 2.64271,3.322687 0,0.280157 0.0756,0.279436 1.19062,-0.01138 1.80979,-0.472013 4.81397,-0.427041 6.77251,0.101385 0.42417,0.114441 0.48684,0.06441 0.68902,-0.550053 0.46263,-1.40604 1.53777,-2.548131 2.86871,-3.047338 0.3341,-0.125311 5.34087,-0.186244 15.30365,-0.186244 14.64892,0 14.81548,0.0039 15.59089,0.368422 1.1109,0.522185 2.11637,1.681654 2.4922,2.873923 0.31238,0.990988 0.31238,0.990988 2.04405,0.990988 1.73168,0 1.73168,0 1.73168,1.499306 0,1.499305 0,1.499305 -1.75176,1.499305 -1.75177,0 -1.75177,0 -1.80799,3.924653 -0.0636,4.440007 -0.14112,4.742501 -1.53882,6.005247 -1.50758,1.362001 -0.30372,1.270795 -16.77365,1.270795 -14.64048,0 -14.73331,-0.0022 -15.53799,-0.374424 -0.97558,-0.451235 -1.91288,-1.353748 -2.37664,-2.288448 -0.29764,-0.599881 -0.35298,-1.198761 -0.42982,-4.652055 -0.0882,-3.963539 -0.0882,-3.963539 -0.97013,-4.312983 -1.29567,-0.513368 -4.88717,-0.513706 -6.26181,-5.29e-4 -0.97014,0.362126 -0.97014,0.362126 -1.06427,4.231424 -0.1043,4.286699 -0.17664,4.612323 -1.30132,5.857202 -0.34978,0.387172 -1.05202,0.892032 -1.56054,1.121911 -0.92456,0.417902 -0.92456,0.417902 -15.12387,0.445186 -7.80962,0.01501 -14.54484,-0.04178 -14.96717,-0.126201 z m 29.03423,-3.162642 c 0.88277,-0.584796 0.94607,-1.029468 0.88988,-6.251528 -0.0521,-4.840028 -0.0521,-4.840028 -0.57015,-5.380484 -0.51807,-0.540457 -0.51807,-0.540457 -14.78614,-0.540457 -14.26807,0 -14.26807,0 -14.78366,0.515599 -0.5156,0.515597 -0.5156,0.515597 -0.5156,5.605196 0,5.617861 0.008,5.660851 1.12506,6.151573 0.8534,0.374848 28.06726,0.279926 28.64061,-0.0999 z m 44.54732,0.162946 c 1.29823,-0.360509 1.35643,-0.623334 1.35718,-6.129302 7.1e-4,-5.002509 -0.0383,-5.301113 -0.76963,-5.89351 -0.34945,-0.283061 -1.39127,-0.305038 -14.63321,-0.30868 -14.25697,-0.0039 -14.25697,-0.0039 -14.77257,0.511676 -0.51559,0.515597 -0.51559,0.515597 -0.51559,5.620657 0,4.889867 0.0154,5.124557 0.36387,5.56765 0.20013,0.254425 0.61685,0.535785 0.92604,0.62524 0.81685,0.236335 27.19419,0.24223 28.04391,0.0063 z M 286.76132,28.732505 c 0,-0.94814 3.16088,-6.436813 5.4856,-9.525406 6.17367,-8.202263 13.72345,-12.1016196 26.3526,-13.6107436 3.08253,-0.368348 13.96774,-0.311134 17.19791,0.0904 14.83128,1.843611 23.34237,7.6482946 29.99291,20.4555826 1.95355,3.762045 1.6226,3.95354 -1.04426,0.604232 -9.85107,-12.371924 -16.19865,-16.291978 -25.10369,-15.503194 -2.88962,0.255955 -7.49856,1.187464 -10.17182,2.055816 -2.40436,0.781005 -2.7954,0.770897 -5.74499,-0.148507 -4.75257,-1.481409 -10.53455,-2.280616 -13.80716,-1.908482 -3.3934,0.385868 -6.56152,1.621845 -9.44425,3.684471 -2.82505,2.02136 -8.20125,7.55257 -11.83647,12.177758 -1.5816,2.012313 -1.87638,2.268079 -1.87638,1.628073 z"
       id="path872" />
  </g>
</svg>
